<svg width="40" height="40" viewBox="0 0 40 40" fill="none" xmlns="http://www.w3.org/2000/svg">
<path d="M19.9223 3.33337C10.7757 3.33337 3.33398 10.81 3.33398 20C3.33398 29.19 10.8107 36.6667 20.0007 36.6667C29.1907 36.6667 36.6673 29.19 36.6673 20C36.6673 10.81 29.1557 3.33337 19.9223 3.33337ZM20.0007 33.3334C12.649 33.3334 6.66732 27.3517 6.66732 20C6.66732 12.6484 12.6123 6.66671 19.9223 6.66671C27.319 6.66671 33.334 12.6484 33.334 20C33.334 27.3517 27.3523 33.3334 20.0007 33.3334Z" fill="#23132B"/>
<path d="M18.334 11.6667H21.6673V23.3334H18.334V11.6667ZM18.334 25H21.6673V28.3334H18.334V25Z" fill="#23132B"/>
</svg>
