<svg xmlns="http://www.w3.org/2000/svg" xmlns:xlink="http://www.w3.org/1999/xlink" aria-hidden="true" style="position:absolute;width:0;height:0;overflow:hidden">
  <defs>
    <symbol id="icon-logo-purple" viewBox="0 0 110 32">
      <path fill="#764191" d="M16.216.014c.434-.05.936.047 1.354.174.945.288 1.714.904 2.169 1.784.474.902.564 1.957.252 2.927-.397 1.196-1.248 1.798-2.311 2.351l.012 3.489c.759.232 1.498.494 2.187.893 1.585.918 2.669 2.467 3.123 4.23.48 1.848.208 3.812-.759 5.46-.887 1.493-2.3 2.596-3.993 3.018-2.211.553-4.087-.047-5.987-1.176-.84.898-1.67 1.807-2.489 2.725.366.864.488 1.771.245 2.689-.237.897-.866 1.666-1.67 2.121-.901.51-1.928.602-2.916.32-.981-.281-1.805-.888-2.284-1.8-.472-.897-.511-1.949-.206-2.907.348-1.089 1.056-1.76 2.052-2.258 1.072-.419 1.959-.281 3.006.096.871-.917 1.692-1.88 2.573-2.789-.968-1.898-1.281-3.515-.778-5.606-1.096-.511-2.152-1.108-3.248-1.62-.586.61-1.302 1.028-2.143 1.169-1.003.169-2.06-.105-2.884-.694a3.67 3.67 0 0 1-1.486-2.493c-.135-.969.12-2.037.741-2.802.64-.789 1.634-1.266 2.637-1.371.986-.096 1.969.205 2.733.836.976.818 1.259 1.834 1.377 3.045 1.039.637 2.229 1.129 3.312 1.698 1.409-1.665 2.439-2.191 4.492-2.824l.001-3.463c-.367-.147-.734-.326-1.054-.561A3.713 3.713 0 0 1 12.8 4.174c-.121-.994.16-1.995.78-2.781.678-.851 1.585-1.238 2.636-1.377zm4.527 17.224c-.209-2.382-2.302-4.148-4.685-3.955-2.404.196-4.19 2.311-3.979 4.714s2.337 4.175 4.739 3.95c2.38-.224 4.134-2.327 3.925-4.709m81.177-5.409c.708.001 1.416.01 2.124.028l-.004 3.743c.545-.424 1.14-.741 1.83-.844a3.504 3.504 0 0 1 2.637.67c.908.687 1.385 1.843 1.524 2.948.175 1.402-.154 2.75-1.02 3.867-.573.554-1.262.941-2.056 1.072-1.165.191-2.088-.216-2.998-.894l-.004.818-2.032-.004-.001-11.403zm3.641 4.904c-.632.21-1.07.509-1.378 1.117-.343.675-.365 1.509-.099 2.212.204.538.585 1.004 1.117 1.244.386.175.75.18 1.165.155.66-.249 1.103-.569 1.401-1.229.312-.689.307-1.52.011-2.214-.227-.533-.631-.963-1.176-1.174-.341-.131-.683-.149-1.042-.111zm-64.477-4.926c1.246 3.84 2.84 7.576 4.055 11.426l-2.296.002c-.269-.822-.529-1.752-.939-2.512-.268-.115-.586-.076-.873-.073-1.107.011-2.215.008-3.323-.011-.348.848-.628 1.721-.903 2.595l-2.339-.002c1.221-3.833 2.677-7.617 3.996-11.42.872.019 1.749-.002 2.622-.005m-1.31 2.839c-.483 1.374-.934 2.768-1.464 4.125l1.681-.001 1.306-.014c-.183-.517-1.25-3.881-1.524-4.11zm49.723-2.814 2.196.013c-.03 2.647-.007 5.298-.007 7.945-.001 1.093.11 2.287-.013 3.365l-.121.083h-2.058l-.004-4.889c-1.645-.046-3.303-.005-4.949-.003l.001 4.894-2.209-.004.009-11.401 2.2.005.001 4.662H89.5zm3.518 3.16c.729.021 1.459.013 2.188.017-.009 1.165-.193 4.384.089 5.347.111.38.333.728.693.913.541.278 1.09.117 1.628-.072.238-.266.443-.515.561-.859.386-1.123.18-4.006.174-5.343.694.019 1.391.004 2.085 0-.016.8-.003 1.603-.004 2.404l.011 5.834c-.683.01-1.365.005-2.047-.015l-.063-.074c.01-.173.012-.314-.018-.487-.639.277-1.209.697-1.936.712-.843.017-1.758-.245-2.364-.852-.459-.459-.739-1.076-.883-1.703-.31-1.348-.127-4.332-.113-5.824zm-29.517-.23c1.089-.085 2.224-.008 3.104.725.617.514.816 1.13.883 1.897l-1.968-.002c-.113-.21-.227-.454-.404-.619-.284-.262-.694-.398-1.078-.377-.298.016-.679.135-.865.387-.113.154-.175.311-.132.503.224 1.009 2.79.884 3.607 1.419.52.341.919.951 1.034 1.56.115.623-.033 1.266-.408 1.775-.627.865-1.593 1.175-2.599 1.329-.931.056-2.011-.194-2.756-.761-.699-.532-.95-1.185-1.045-2.025.663.002 1.326-.005 1.989-.018.039.125.082.246.145.361.289.533.865.651 1.4.808.353-.081.831-.172 1.082-.457.151-.172.204-.471.14-.691-.245-.843-2.703-.943-3.556-1.468-.505-.311-.876-.764-1.011-1.349-.121-.53-.075-1.125.223-1.59.538-.84 1.28-1.185 2.216-1.408zm13.244-.002c.62-.05 1.227-.047 1.831.117.697.189 1.438.578 1.79 1.239.169.317.3.886.186 1.237-.565.122-1.255.04-1.835.033-.085-.287-.158-.509-.391-.707a1.416 1.416 0 0 0-1.062-.322c-.3.031-.685.178-.852.447-.1.16-.141.325-.078.509.362 1.068 2.535.814 3.38 1.297.538.308.988.848 1.141 1.454.164.65.056 1.372-.319 1.931-.56.835-1.449 1.149-2.388 1.331-.922.114-1.989-.082-2.759-.613-.791-.545-1.028-1.229-1.206-2.123l1.973-.015c.12.302.229.537.485.746.341.279.745.406 1.184.347.341-.045.676-.202.88-.487.133-.187.2-.414.136-.642-.247-.878-2.426-.823-3.29-1.288-.584-.315-1.047-.838-1.231-1.481-.157-.544-.091-1.11.196-1.599.477-.81 1.353-1.206 2.231-1.409zm-24.289-2.032c.655.023 1.315.009 1.97.011-.007.74.004 1.48.032 2.219l1.944.001-.004 1.694-1.851-.001c.001 1.066-.243 3.817.246 4.641.382.301 1.145.189 1.609.183l-.007 1.404c.004.145.004.218-.07.344-.259.124-.524.152-.81.154-.752.007-1.791-.129-2.331-.693-1.086-1.131-.739-4.457-.734-6.035l-1.254.002.004-1.698 1.249.008.007-2.236zm16.899-.009 1.934.011c-.015.741.016 1.485.03 2.226l1.975-.004-.003 1.702-1.859-.001c.023 1.015-.226 3.85.234 4.617.494.295 1.113.216 1.669.215-.007.489.003.979.005 1.469l-.023.186c-.191.202-.486.194-.747.2-.794.019-1.891-.107-2.467-.71-1.075-1.126-.74-4.405-.731-5.978l-1.323.001c-.017-.564-.01-1.129-.015-1.692l1.318.007.004-2.249zm-41.72-1.266c.102-.005.2-.007.302.008.316.046.628.198.802.476.185.294.21.687.235 1.028.125 1.688.032 3.444.032 5.138 0 1.384.153 3.26-.104 4.592-.081.419-.359.619-.691.846-.127.015-.259.033-.387.026-.285-.016-.556-.143-.74-.361-.183-.216-.177-.648-.193-.919-.116-1.942-.018-3.946-.016-5.893.001-1.107-.151-3.225.082-4.213.083-.353.402-.539.68-.727zm22.424 3.476.278-.003c.329.368.166 1.535.155 2.018-.696-.007-1.354-.035-1.899.471-1.023.949-.678 4.425-.688 5.82-.548-.005-1.617.195-2.035-.154l-.022-.346c.01-2.586-.055-5.169-.038-7.754.664.021 1.33.007 1.994.003l-.023 1.142c.123-.177.246-.366.389-.527.503-.568 1.186-.619 1.891-.669zm7.552.034 2.086.001.005 8.275-2.11-.003zm-32.889-.799c.342.063.645.192.845.489.308.459.316 4.955.162 5.596-.084.351-.388.522-.676.691-.329-.02-.763-.049-.983-.335-.328-.425-.3-5.203-.114-5.802.108-.348.466-.495.765-.639zm33.794-2.61c.62-.073 1.185.36 1.276.978s-.325 1.195-.939 1.304c-.414.073-.835-.084-1.099-.411a1.1536 1.1536 0 0 1 .762-1.871" style="fill:var(--color1, #764191)"/>
    </symbol>
    <symbol id="icon-logo1" viewBox="0 0 110 32">
      <path d="M16.216.013c.434-.05.936.047 1.354.174.945.288 1.714.905 2.169 1.785.474.902.564 1.957.252 2.927-.397 1.196-1.247 1.797-2.309 2.35l.012 3.489c.759.231 1.498.495 2.188.894 1.584.919 2.669 2.467 3.123 4.23.48 1.848.206 3.812-.76 5.459-.887 1.493-2.3 2.597-3.993 3.019-2.211.552-4.086-.047-5.986-1.176-.84.898-1.67 1.807-2.489 2.725.366.864.487 1.77.244 2.687-.237.897-.866 1.666-1.67 2.121-.901.51-1.928.603-2.916.321-.981-.281-1.805-.889-2.284-1.801-.472-.897-.511-1.949-.206-2.907.348-1.089 1.057-1.759 2.053-2.257 1.072-.419 1.958-.281 3.005.096.872-.917 1.693-1.88 2.574-2.789-.968-1.898-1.281-3.515-.778-5.606-1.096-.511-2.153-1.108-3.249-1.62-.586.61-1.301 1.028-2.142 1.169-1.003.169-2.061-.105-2.885-.694a3.67 3.67 0 0 1-1.486-2.493c-.135-.97.12-2.038.741-2.803.64-.789 1.634-1.265 2.637-1.37.986-.096 1.97.205 2.734.836.976.818 1.258 1.834 1.376 3.045 1.039.637 2.229 1.129 3.312 1.698 1.409-1.665 2.439-2.191 4.492-2.824l.002-3.463c-.368-.147-.735-.326-1.055-.561a3.715 3.715 0 0 1-1.473-2.501c-.121-.994.159-1.996.779-2.782C14.26.54 15.167.153 16.218.014zm4.528 17.225c-.209-2.382-2.302-4.148-4.686-3.955-2.404.196-4.189 2.311-3.979 4.714.211 2.404 2.337 4.176 4.739 3.951 2.38-.224 4.134-2.328 3.925-4.71zm81.175-5.409c.708.001 1.416.011 2.124.029l-.004 3.742c.545-.424 1.14-.739 1.831-.843.933-.141 1.884.1 2.636.669.908.687 1.385 1.844 1.524 2.949.175 1.401-.154 2.749-1.02 3.866-.573.554-1.263.941-2.057 1.072-1.165.191-2.087-.216-2.997-.894l-.004.817-2.032-.003zm3.641 4.904c-.632.21-1.07.51-1.378 1.118-.343.674-.365 1.508-.099 2.211.204.538.585 1.004 1.117 1.244.386.175.75.18 1.165.155.66-.249 1.103-.569 1.401-1.229.312-.689.307-1.52.011-2.214-.227-.533-.631-.963-1.176-1.174-.341-.131-.683-.149-1.042-.111zm-64.475-4.926c1.246 3.84 2.84 7.575 4.055 11.425l-2.296.003c-.269-.822-.529-1.752-.94-2.512-.268-.115-.586-.076-.873-.073-1.107.011-2.215.007-3.323-.012-.348.849-.628 1.722-.903 2.596l-2.339-.002c1.221-3.833 2.678-7.617 3.996-11.42.872.019 1.749-.002 2.622-.005zm-1.309 2.839c-.483 1.374-.934 2.768-1.464 4.125l1.681-.001 1.307-.015c-.184-.518-1.25-3.879-1.524-4.109m49.722-2.814 2.196.013c-.03 2.647-.007 5.298-.007 7.945-.001 1.093.11 2.287-.012 3.365l-.121.083h-2.058l-.004-4.889c-1.645-.046-3.303-.005-4.949-.003l.001 4.894-2.209-.004.009-11.401 2.201.005.001 4.661h4.957l-.003-4.67zm3.517 3.16c.729.021 1.459.013 2.188.017-.009 1.165-.193 4.384.089 5.347.111.38.333.728.693.913.541.278 1.09.117 1.628-.072.238-.266.443-.515.561-.859.386-1.123.18-4.006.174-5.343.694.019 1.391.004 2.085 0-.016.8-.003 1.603-.004 2.404l.011 5.834c-.683.01-1.365.005-2.047-.015l-.063-.074c.01-.173.012-.314-.018-.487-.639.277-1.209.697-1.936.712-.843.017-1.758-.245-2.364-.852-.459-.459-.739-1.076-.883-1.703-.31-1.348-.127-4.332-.113-5.824zm-29.517-.23c1.089-.085 2.224-.008 3.104.725.617.514.816 1.13.883 1.897l-1.968-.002c-.113-.21-.227-.455-.404-.619-.284-.262-.694-.398-1.078-.377-.298.016-.679.135-.865.387-.113.154-.175.311-.132.503.224 1.009 2.79.884 3.607 1.419.52.341.919.951 1.034 1.56.115.623-.033 1.266-.408 1.775-.627.865-1.593 1.175-2.599 1.329-.931.056-2.011-.194-2.756-.761-.699-.532-.95-1.185-1.045-2.025q.9945.0015 1.989-.018c.039.125.082.245.145.361.289.533.865.651 1.4.808.353-.081.831-.172 1.082-.457.151-.172.204-.471.14-.691-.245-.843-2.703-.943-3.556-1.468-.505-.311-.876-.764-1.011-1.349-.121-.53-.075-1.125.223-1.59.538-.84 1.28-1.185 2.216-1.408zm13.245-.002c.62-.05 1.227-.047 1.832.117.697.189 1.438.578 1.79 1.238.17.317.3.886.186 1.237-.565.122-1.255.04-1.835.033-.085-.287-.158-.509-.391-.707a1.416 1.416 0 0 0-1.062-.322c-.3.031-.685.178-.852.447-.1.16-.141.325-.078.509.363 1.068 2.535.814 3.38 1.297.538.308.988.848 1.141 1.454.164.65.056 1.372-.319 1.931-.56.835-1.449 1.149-2.388 1.331-.922.114-1.989-.082-2.759-.613-.791-.545-1.028-1.229-1.206-2.123l1.973-.015c.12.302.229.537.485.746.341.279.745.406 1.184.347.341-.045.676-.202.88-.487.133-.187.199-.414.136-.642-.247-.878-2.426-.823-3.29-1.288-.584-.315-1.047-.838-1.231-1.481-.157-.544-.091-1.11.196-1.599.477-.81 1.353-1.206 2.231-1.409zm-24.29-2.031c.655.023 1.315.009 1.97.012-.007.74.004 1.479.032 2.219l1.944.001-.004 1.694-1.851-.001c.001 1.066-.243 3.817.246 4.641.382.301 1.145.189 1.609.183l-.007 1.404c.004.145.004.218-.07.344-.259.124-.524.152-.81.154-.752.006-1.791-.129-2.331-.693-1.086-1.131-.739-4.457-.734-6.035l-1.254.002.004-1.698 1.249.008.007-2.236zm16.9-.01 1.934.011c-.015.741.016 1.485.03 2.226l1.975-.004-.003 1.702-1.859-.001c.023 1.015-.226 3.85.234 4.617.494.295 1.113.216 1.669.215-.007.489.003.979.005 1.469l-.023.186c-.191.203-.486.194-.747.2-.794.019-1.891-.107-2.467-.71-1.075-1.125-.74-4.405-.731-5.978l-1.323.001c-.017-.564-.01-1.129-.015-1.692l1.318.007.004-2.249zm-41.72-1.266c.102-.005.2-.007.301.008.316.046.628.198.802.476.185.294.21.686.235 1.028.125 1.688.032 3.444.032 5.138 0 1.383.153 3.259-.104 4.592-.081.419-.358.619-.691.846-.127.015-.259.033-.387.026-.285-.016-.556-.143-.74-.361-.183-.216-.177-.648-.193-.919-.116-1.942-.018-3.946-.016-5.893.001-1.107-.151-3.225.082-4.213.083-.353.402-.539.68-.727zm22.422 3.476.278-.003c.329.368.166 1.535.155 2.018-.696-.007-1.354-.035-1.899.471-1.023.949-.678 4.425-.688 5.82-.548-.005-1.617.195-2.035-.154l-.022-.346c.01-2.586-.055-5.169-.038-7.754.664.021 1.33.007 1.994.003l-.023 1.142c.123-.177.246-.366.389-.527.503-.568 1.186-.619 1.891-.669zm7.553.034 2.086.001.005 8.275-2.11-.003zm-32.889-.799c.342.063.645.192.845.489.308.459.316 4.955.162 5.596-.084.351-.388.522-.676.691-.329-.02-.763-.049-.983-.335-.328-.425-.3-5.203-.114-5.802.108-.348.466-.495.765-.639zm33.795-2.61c.62-.073 1.185.36 1.276.978s-.325 1.195-.939 1.304c-.414.073-.835-.084-1.099-.411a1.1536 1.1536 0 0 1 .762-1.871"/>
    </symbol>
    <symbol id="icon-logo-icon" viewBox="0 0 32 32">
      <path d="M17.5 3.14c.384-.041.83.039 1.2.144.838.238 1.518.747 1.922 1.474.42.745.5 1.616.223 2.417-.352.988-1.105 1.485-2.047 1.941l.011 2.881c.673.191 1.328.408 1.939.738 1.404.758 2.365 2.038 2.768 3.493.426 1.526.184 3.148-.673 4.508-.786 1.233-2.039 2.143-3.539 2.492-1.959.456-3.621-.038-5.305-.971-.744.742-1.48 1.492-2.206 2.25.325.713.432 1.462.217 2.22-.21.741-.768 1.376-1.48 1.751-.799.421-1.709.498-2.584.264-.869-.232-1.599-.733-2.024-1.487-.418-.741-.453-1.609-.182-2.4.308-.899.937-1.453 1.82-1.864.95-.346 1.736-.232 2.664.079.772-.757 1.5-1.553 2.28-2.304-.858-1.567-1.136-2.902-.69-4.629-.971-.422-1.907-.914-2.879-1.337-.519.504-1.154.849-1.899.966-.889.139-1.826-.087-2.556-.573-.724-.489-1.2-1.233-1.317-2.059-.12-.801.106-1.683.656-2.315.567-.652 1.448-1.044 2.337-1.131.874-.079 1.746.169 2.422.69.865.675 1.115 1.514 1.22 2.515.921.526 1.976.932 2.935 1.402 1.248-1.375 2.16-1.809 3.98-2.332l.002-2.859c-.326-.121-.651-.269-.935-.464-.718-.495-1.189-1.24-1.306-2.065-.108-.821.141-1.648.691-2.297.601-.702 1.404-1.022 2.336-1.137zm4.012 14.222c-.185-1.967-2.04-3.425-4.152-3.265-2.131.162-3.713 1.908-3.527 3.892s2.072 3.448 4.2 3.262c2.11-.185 3.663-1.922 3.478-3.889zm6.105-4.776c.09-.004.178-.005.267.007.28.038.556.164.71.393.164.243.186.567.208.849.111 1.394.029 2.844.028 4.243 0 1.142.136 2.691-.092 3.792-.072.346-.318.511-.612.698-.112.013-.23.027-.343.021-.253-.013-.492-.118-.656-.298-.162-.178-.157-.535-.171-.759-.103-1.603-.016-3.258-.014-4.866.001-.914-.134-2.663.072-3.479.074-.292.356-.445.603-.6zm-2.582 2.239c.304.052.572.158.749.404.273.379.28 4.091.144 4.621-.075.29-.344.431-.599.57-.292-.016-.676-.04-.871-.276-.29-.351-.266-4.296-.101-4.791.096-.287.413-.409.678-.528"/>
    </symbol>
    <symbol id="icon-play" viewBox="0 0 32 32">
      <path d="M12 25.333 22.667 16 12 6.667v18.667z"/>
    </symbol>
    <symbol id="icon-chevron-up" viewBox="0 0 32 32">
      <path d="m8.391 19.057 1.885 1.885L16 15.218l5.724 5.724 1.885-1.885L16 11.448z"/>
    </symbol>
    <symbol id="icon-chevron-down" viewBox="0 0 32 32">
      <path d="M21.724 11.057 16 16.781l-5.724-5.724-1.885 1.885L16 20.551l7.609-7.609z"/>
    </symbol>
    <symbol id="icon-left-arrow-alt" viewBox="0 0 32 32">
      <path d="m16.943 23.057-5.724-5.724H24v-2.667H11.219l5.724-5.724-1.885-1.885L6.115 16l8.943 8.943 1.885-1.885z"/>
    </symbol>
    <symbol id="icon-right-arrow-alt" viewBox="0 0 32 32">
      <path d="m15.057 23.057 1.885 1.885 8.943-8.943-8.943-8.943-1.885 1.885 5.724 5.724H8v2.667h12.781l-5.724 5.724z"/>
    </symbol>
    <symbol id="icon-search" viewBox="0 0 32 32">
      <path d="M13.333 24c2.367-.001 4.665-.793 6.529-2.251l5.861 5.861 1.885-1.885-5.861-5.861a10.6 10.6 0 0 0 2.252-6.531c0-5.881-4.785-10.667-10.667-10.667S2.665 7.451 2.665 13.333C2.665 19.214 7.45 24 13.332 24zm0-18.667c4.412 0 8 3.588 8 8s-3.588 8-8 8-8-3.588-8-8 3.588-8 8-8"/>
    </symbol>
    <symbol id="icon-relume" viewBox="0 0 32 32">
      <path d="m27.64 9.493-.187-.333c-.241-.403-.58-.738-.987-.973l-8.947-5.16a2.67 2.67 0 0 0-1.333-.36h-.387c-.468.001-.928.125-1.333.36L5.519 8.2c-.404.234-.74.569-.973.973l-.187.333c-.235.405-.359.865-.36 1.333v10.333c.001.468.125.928.36 1.333l.187.333c.24.399.574.734.973.973l8.96 5.16c.403.24.864.364 1.333.36h.373c.468-.001.928-.125 1.333-.36l8.947-5.173c.408-.228.745-.565.973-.973l.2-.333c.232-.406.356-.865.36-1.333V10.826a2.67 2.67 0 0 0-.36-1.333zM15.8 5.333h.387L24 9.84l-8 4.613L8 9.84zM17.333 26l7.8-4.507.2-.333v-9.013l-8 4.627v9.227z"/>
    </symbol>
    <symbol id="icon-time-five" viewBox="0 0 32 32">
      <path d="M16 2.667C8.648 2.667 2.667 8.648 2.667 16S8.648 29.333 16 29.333 29.333 23.352 29.333 16 23.352 2.667 16 2.667m0 24c-5.881 0-10.667-4.785-10.667-10.667S10.118 5.333 16 5.333c5.881 0 10.667 4.785 10.667 10.667S21.882 26.667 16 26.667"/>
      <path d="M17.333 9.333h-2.667v7.219l4.391 4.391 1.885-1.885-3.609-3.609V9.334z"/>
    </symbol>
    <symbol id="icon-x" viewBox="0 0 32 32">
      <path d="m21.589 8.459-5.657 5.656-5.656-5.656-1.885 1.885L14.047 16l-5.656 5.656 1.885 1.885 5.656-5.656 5.657 5.656 1.885-1.885L17.818 16l5.656-5.656z"/>
    </symbol>
    <symbol id="icon-instagram" viewBox="0 0 32 32">
      <path d="M15.998 6.161c3.206 0 3.585.014 4.846.071 1.172.052 1.804.248 2.226.412.558.216.961.478 1.378.895.422.422.679.82.9 1.378.164.422.361 1.059.412 2.226.056 1.266.071 1.645.071 4.847s-.014 3.585-.071 4.847c-.052 1.172-.248 1.804-.412 2.227-.216.558-.478.961-.895 1.377-.422.422-.82.679-1.378.9-.422.164-1.06.361-2.226.412-1.266.056-1.645.071-4.847.071s-3.585-.014-4.847-.071c-1.172-.052-1.804-.248-2.226-.412-.558-.216-.961-.478-1.378-.895-.422-.422-.679-.82-.9-1.378-.164-.422-.361-1.06-.412-2.226-.056-1.266-.071-1.645-.071-4.847s.014-3.585.071-4.847c.052-1.172.248-1.804.412-2.226.216-.558.478-.961.895-1.378.422-.422.82-.679 1.378-.9.422-.164 1.059-.361 2.226-.412 1.261-.056 1.641-.071 4.847-.071zm0-2.16c-3.258 0-3.665.014-4.945.071-1.275.056-2.151.262-2.91.558-.792.309-1.462.717-2.127 1.387-.67.666-1.078 1.336-1.387 2.123-.295.764-.502 1.636-.558 2.91C4.015 12.335 4 12.742 4 15.999s.014 3.665.071 4.945c.056 1.275.262 2.151.558 2.91.31.792.717 1.462 1.387 2.127.665.665 1.336 1.078 2.123 1.383.764.295 1.636.502 2.91.558 1.279.056 1.687.071 4.945.071s3.666-.014 4.945-.071c1.275-.056 2.151-.262 2.91-.558.787-.305 1.458-.717 2.123-1.383s1.078-1.336 1.383-2.123c.295-.764.502-1.635.558-2.91.056-1.279.071-1.687.071-4.945s-.014-3.665-.071-4.945c-.056-1.275-.262-2.151-.558-2.91-.295-.797-.703-1.467-1.373-2.133-.665-.665-1.336-1.078-2.123-1.383-.764-.295-1.635-.502-2.91-.558-1.284-.061-1.692-.075-4.949-.075L15.999 4z"/>
      <path d="M15.998 9.836c-3.402 0-6.163 2.76-6.163 6.163s2.76 6.163 6.163 6.163 6.163-2.76 6.163-6.163-2.76-6.163-6.163-6.163m0 10.161c-2.208 0-3.998-1.79-3.998-3.998s1.79-3.998 3.998-3.998 3.998 1.79 3.998 3.998-1.79 3.998-3.998 3.998m7.845-10.405c0 .795-.644 1.439-1.439 1.439s-1.439-.644-1.439-1.439.644-1.439 1.439-1.439 1.439.644 1.439 1.439"/>
    </symbol>
    <symbol id="icon-facebook" viewBox="0 0 32 32">
      <path d="M29.333 16.405C29.333 8.996 23.364 2.99 16 2.99S2.667 8.996 2.667 16.405c0 6.696 4.876 12.245 11.25 13.252v-9.374h-3.385v-3.878h3.385V13.45c0-3.362 1.991-5.219 5.036-5.219 1.459 0 2.985.262 2.985.262v3.301h-1.681c-1.656 0-2.173 1.034-2.173 2.095v2.516h3.698l-.591 3.878h-3.107v9.374c6.374-1.006 11.25-6.556 11.25-13.252z"/>
    </symbol>
    <symbol id="icon-youtube" viewBox="0 0 32 32">
      <path d="M28.791 9.604c-.152-.563-.449-1.077-.861-1.49s-.925-.711-1.489-.864C24.353 6.677 16 6.667 16 6.667s-8.352-.009-10.441.539c-.563.16-1.075.462-1.487.878s-.711.929-.867 1.493c-.551 2.088-.556 6.419-.556 6.419s-.005 4.352.541 6.419c.307 1.143 1.207 2.045 2.351 2.353 2.109.573 10.44.583 10.44.583s8.353.009 10.441-.537c.563-.153 1.077-.45 1.49-.862s.712-.925.866-1.488c.552-2.087.556-6.416.556-6.416s.027-4.353-.543-6.441zM13.328 20.007l.007-8 6.943 4.007-6.949 3.993z"/>
    </symbol>
    <symbol id="icon-menu-alt-right" viewBox="0 0 32 32">
      <path d="M5.333 8h21.333v2.667H5.333zm5.334 6.667h16v2.667h-16zm6.666 6.666h9.333V24h-9.333z"/>
    </symbol>
  </defs>
</svg>