<svg width="31" height="31" viewBox="0 0 31 31" fill="none" xmlns="http://www.w3.org/2000/svg">
<path d="M15.7092 0.0134047C16.1293 -0.0348899 16.616 0.0590403 17.0207 0.18235C17.9363 0.461283 18.6807 1.05818 19.1222 1.91087C19.581 2.7849 19.6689 3.80719 19.3664 4.7468C18.9821 5.90572 18.1574 6.48855 17.1281 7.02415L17.1398 10.404C17.8753 10.6283 18.5911 10.8822 19.259 11.2693C20.794 12.1591 21.844 13.6597 22.2843 15.3669C22.7497 17.1573 22.4855 19.0602 21.549 20.656C20.6901 22.1024 19.3204 23.1706 17.6808 23.5798C15.5389 24.1151 13.722 23.5357 11.881 22.4411C11.0674 23.3111 10.2633 24.1907 9.46989 25.0798C9.82467 25.9167 9.94246 26.7951 9.7072 27.6843C9.47727 28.5536 8.86818 29.2986 8.08903 29.739C7.21592 30.2331 6.22106 30.3225 5.26384 30.0486C4.31386 29.7767 3.51525 29.1887 3.05095 28.3044C2.59394 27.435 2.55543 26.4162 2.85173 25.488C3.18877 24.4333 3.875 23.7836 4.84001 23.3015C5.87892 22.8951 6.73799 23.0289 7.75212 23.3943C8.59646 22.5057 9.39126 21.5719 10.2443 20.6911C9.30686 18.8526 9.00298 17.2864 9.4904 15.2605C8.42912 14.765 7.40584 14.1884 6.34392 13.6921C5.77644 14.2828 5.08231 14.6879 4.26775 14.8249C3.29643 14.9883 2.27221 14.7233 1.4738 14.1531C0.682617 13.5799 0.162139 12.7056 0.0343467 11.737C-0.0967091 10.7979 0.150715 9.76335 0.75212 9.02219C1.37239 8.2577 2.3348 7.79588 3.30681 7.69407C4.26176 7.60106 5.21453 7.89267 5.95427 8.50364C6.90015 9.29588 7.17356 10.2811 7.28825 11.4548C8.2948 12.0719 9.44747 12.5474 10.4963 13.0984C11.861 11.485 12.8587 10.9762 14.8478 10.363L14.8488 7.00852C14.4928 6.86604 14.1375 6.6926 13.8273 6.46458C13.0426 5.88402 12.5268 5.00958 12.3996 4.04173C12.282 3.07887 12.5544 2.10877 13.1554 1.34739C13.8124 0.523332 14.6905 0.148203 15.7092 0.0134047ZM20.0949 16.6999C19.8925 14.3923 17.8645 12.6811 15.5558 12.8689C13.2267 13.0586 11.4972 15.1077 11.7013 17.4353C11.9055 19.7638 13.9655 21.481 16.2922 21.2624C18.5982 21.0451 20.2971 19.0072 20.0949 16.6999Z" fill="#764191"/>
<path d="M26.7686 11.0947C26.8671 11.0898 26.9627 11.0884 27.0607 11.1026C27.3669 11.147 27.6686 11.2949 27.8372 11.5637C28.0162 11.849 28.0407 12.2288 28.0652 12.5592C28.1866 14.1945 28.0964 15.8958 28.0959 17.5369C28.0956 18.8771 28.2441 20.6946 27.9953 21.9852C27.917 22.3909 27.6479 22.5849 27.3258 22.8044C27.2031 22.8192 27.0747 22.8362 26.9509 22.8292C26.6744 22.8136 26.4126 22.6904 26.2338 22.4794C26.057 22.2706 26.0621 21.8514 26.0464 21.5895C25.9341 19.7083 26.0291 17.767 26.0308 15.8802C26.0318 14.808 25.8844 12.7555 26.1098 11.7987C26.1905 11.4564 26.499 11.277 26.7686 11.0947Z" fill="#764191"/>
<path d="M23.9465 13.7217C24.2782 13.7829 24.5718 13.9075 24.7651 14.1957C25.0633 14.6402 25.0714 18.9956 24.922 19.6172C24.8403 19.957 24.5463 20.1227 24.2675 20.2863C23.9483 20.2671 23.5287 20.2388 23.3155 19.962C22.9982 19.5507 23.0245 14.9217 23.2051 14.3412C23.31 14.004 23.6568 13.8614 23.9465 13.7217Z" fill="#764191"/>
</svg>